
<svg width="600" height="400" viewBox="0 0 600 400" fill="none" xmlns="http://www.w3.org/2000/svg">
  <rect width="600" height="400" fill="#222" />
  <rect x="75" y="50" width="200" height="300" rx="15" fill="#333" stroke="#666" stroke-width="2" />
  <rect x="325" y="50" width="200" height="300" rx="15" fill="#333" stroke="#6E56CF" stroke-width="2" />
  
  <!-- Physical SIM Card -->
  <rect x="120" y="120" width="110" height="170" rx="10" fill="#444" />
  <rect x="150" y="150" width="50" height="50" rx="5" fill="#666" />
  <rect x="140" y="220" width="70" height="10" rx="2" fill="#666" />
  <rect x="140" y="240" width="70" height="10" rx="2" fill="#666" />
  <text x="175" y="100" font-family="Arial" font-size="16" text-anchor="middle" fill="#FFF">Physical SIM</text>
  
  <!-- eSIM -->
  <rect x="370" y="120" width="110" height="170" rx="10" fill="#2A2C3F" />
  <circle cx="425" cy="175" r="30" fill="#6E56CF" opacity="0.2" />
  <circle cx="425" cy="175" r="20" fill="#6E56CF" opacity="0.5" />
  <path d="M425 155 Q445 165 425 185 Q405 165 425 155" fill="#6E56CF" />
  <rect x="395" y="220" width="60" height="10" rx="2" fill="#6E56CF" opacity="0.5" />
  <rect x="395" y="240" width="60" height="10" rx="2" fill="#6E56CF" opacity="0.5" />
  <text x="425" y="100" font-family="Arial" font-size="16" text-anchor="middle" fill="#FFF">Gesim eSIM</text>
</svg>
